<?xml version="1.0" encoding="UTF-8" standalone="no"?>
<svg
   xmlns:dc="http://purl.org/dc/elements/1.1/"
   xmlns:cc="http://creativecommons.org/ns#"
   xmlns:rdf="http://www.w3.org/1999/02/22-rdf-syntax-ns#"
   xmlns:svg="http://www.w3.org/2000/svg"
   xmlns="http://www.w3.org/2000/svg"
   id="svg3789"
   version="1.1"
   viewBox="0 0 210 297"
   height="297mm"
   width="210mm">
  <defs
     id="defs3783" />
  <metadata
     id="metadata3786">
    <rdf:RDF>
      <cc:Work
         rdf:about="">
        <dc:format>image/svg+xml</dc:format>
        <dc:type
           rdf:resource="http://purl.org/dc/dcmitype/StillImage" />
        <dc:title></dc:title>
      </cc:Work>
    </rdf:RDF>
  </metadata>
  <g
     id="layer1">
    <path
       d="m 18.104377,76.750584 c 3.387494,0.413112 6.758404,0.907116 10.160613,1.196194 3.851944,0.284914 7.714993,0.33799 11.575661,0.364339 2.627376,0.168609 5.178864,0.858243 7.784655,1.213088 1.85288,0.357357 3.592981,1.130798 5.343007,1.813277 1.483759,0.421548 2.790108,1.222658 4.001195,2.15736 1.61674,1.373018 2.833849,2.997179 3.865857,4.837295 0.922427,1.700257 1.760505,3.438726 2.709068,5.124148 0.829374,1.475306 0.983861,3.151243 1.102911,4.805519 0.08569,1.596567 0.07573,3.196156 0.07233,4.794416 0.168167,1.99212 -0.633127,3.55537 -1.857171,5.05633 -3.382838,3.42138 -7.808018,5.17835 -12.079761,7.5684 -0.857589,0.47983 -2.106142,0.5833 -3.045944,0.86329 -2.139807,0.51273 -4.344212,0.68978 -6.538378,0.75014 -2.282995,0.26341 -4.475409,0.97636 -6.754696,1.28531 -2.081911,0.26176 -4.183462,0.25145 -6.277851,0.27244 -2.262261,0.0102 -4.524456,-0.009 -6.786681,-0.0138 -2.253511,0.001 -4.507018,0.002 -6.760527,0.005 -1.789061,0.005 -3.578118,0.0116 -5.367184,0.0149 -1.7150125,0.0114 -3.4348472,-0.0686 -5.1485003,0.0243 3.2149783,-2.20413 6.3271383,-4.5663 9.6449343,-6.6124 0.291886,-0.18001 0.685497,0.0227 1.028346,0.0301 0.481332,0.0104 0.96274,0.0172 1.444146,0.0233 1.914054,0.0242 3.828136,0.0291 5.74231,0.0317 3.250642,0.006 6.50114,-0.0229 9.751629,-0.0493 2.180518,-0.0203 4.361121,-0.002 6.541701,0.002 2.886662,0.008 5.77324,0.0255 8.659921,0.0166 2.425266,-0.013 4.850556,-0.0182 7.275843,-0.0242 1.883992,-0.10693 3.703103,0.008 5.516179,0.53303 1.142923,0.42239 2.397662,0.44451 3.531912,0.88806 0.529376,0.20702 1.027544,0.48711 1.550829,0.70908 1.541449,0.51513 3.01403,1.1956 4.406288,2.03204 1.684608,1.00105 3.218006,2.22639 4.80763,3.36764 1.501722,0.87533 2.880564,1.94383 4.220051,3.04813 1.222132,0.96531 2.379586,2.01101 3.596214,2.98166 0.859087,0.97854 1.693278,2.0327 2.364431,3.15566 0.605306,1.34227 1.052332,2.74642 1.317157,4.19481 0.244001,1.76384 0.393083,3.54995 0.299616,5.32975 -0.273571,1.9296 -1.181507,3.64768 -2.125215,5.32118 -1.223978,2.1343 -3.211848,3.58906 -5.229863,4.91272 -4.20553,2.80356 -8.462115,5.15634 -12.984376,7.21755 -0.995305,0.45366 -1.974586,0.75234 -2.924196,1.29896 -1.815558,1.03424 -3.882459,1.46715 -5.834621,2.15747 -1.786588,0.90958 -3.778938,1.16247 -5.669113,1.73378 -1.612204,0.32726 -3.180472,0.83808 -4.798402,1.12959 -1.738122,0.28747 -3.500265,0.36121 -5.258723,0.38252 -2.016167,0.0141 -4.032477,0.008 -6.048661,-0.003 -2.506442,-0.008 -5.012938,-0.0193 -7.519402,-0.0154 -2.008826,0.008 -4.017631,0.0192 -6.026462,0.0255 -1.722652,-0.002 -3.445302,-0.003 -5.167968,-5.3e-4 -2.162834,0.017 -4.327982,-0.10656 -6.4829352,0.0978 -2.6825451,0.28165 -5.374614,0.46776 -8.0697871,0.56868 -1.40427258,0.18991 -2.802744,0.41575 -4.2083671,0.59581 0,0 8.9392197,-6.67284 8.9392197,-6.67284 v 0 c 1.4031415,-0.18485 2.8041248,-0.404 4.2186957,-0.48229 2.687816,-0.12339 5.369481,-0.32087 8.046634,-0.59228 2.197484,-0.10715 4.397306,-0.061 6.596906,-0.0831 1.72315,0.003 3.446283,0.001 5.169417,-5.3e-4 1.985044,0.006 3.970057,0.0181 5.955088,0.0269 2.515716,0.006 5.031467,-0.003 7.547184,-0.004 2.021731,-0.006 4.043854,0.006 6.065083,-0.0473 1.722914,-0.0709 3.452331,-0.16804 5.139537,-0.55197 1.586158,-0.3987 3.181299,-0.75371 4.761989,-1.17392 1.913916,-0.45577 3.781978,-1.02895 5.608039,-1.76874 1.96781,-0.6163 3.929365,-1.2684 5.735908,-2.28332 4.025479,-1.74592 13.438735,-6.42427 -3.122459,2.44415 2.006954,-1.15851 3.981505,-2.4912 5.386128,-4.36768 0.883631,-1.57957 1.8459,-3.10582 2.292278,-4.8861 0.243557,-1.67418 0.01413,-3.38796 -0.155654,-5.06172 -0.229992,-1.32065 -0.649274,-2.58279 -1.156621,-3.82015 -0.606972,-1.01354 -1.365258,-1.97163 -2.166112,-2.83295 -1.172064,-1.01332 -2.346944,-2.02098 -3.558563,-2.98741 -1.341869,-1.06542 -2.69902,-2.11113 -4.159938,-3.01011 -1.565908,-1.12514 -3.075469,-2.34327 -4.786905,-3.24705 -1.387676,-0.76101 -2.825388,-1.39818 -4.317368,-1.92987 -1.603206,-0.68308 -3.277246,-1.05049 -4.969576,-1.45627 -1.765721,-0.35108 -3.537683,-0.37549 -5.335143,-0.33249 -2.403112,-0.006 -4.806228,-0.0111 -7.209322,-0.0242 -2.901865,-0.009 -5.803627,0.009 -8.705476,0.0165 -2.182646,0.005 -4.365324,0.0226 -6.547907,0.002 -3.205239,-0.0266 -6.410488,-0.0554 -9.615884,-0.0493 -2.445868,0.003 -4.8923948,0.005 -7.3378764,0.055 -4.6726931,0.0953 -1.8146826,0.57363 7.4461334,-6.58227 1.690147,0.10774 3.389727,0.002 5.081652,0.0242 1.775268,0.003 3.550527,0.009 5.325786,0.0156 2.245076,0.005 4.490149,0.007 6.735221,0.0151 2.268495,0.002 4.53712,-5.3e-4 6.805546,-0.018 2.066113,-0.0275 4.138679,-0.0766 6.183606,-0.4026 2.268845,-0.40733 4.501833,-1.05762 6.81377,-1.17727 2.155764,-0.14079 4.321561,-0.33352 6.396675,-0.9758 0.566666,-0.16313 1.393187,-0.38402 1.940248,-0.60968 0.321754,-0.13272 1.23799,-0.63477 0.939215,-0.45623 -15.599418,9.32168 -9.858161,6.17775 -6.845377,3.75908 1.210416,-1.23667 2.317224,-2.45056 2.154431,-4.30231 0.0076,-1.57836 0.0254,-3.15743 -0.02768,-4.73522 -0.0769,-1.49447 -0.15663,-3.01835 -0.874511,-4.367831 C 52.930271,97.327892 52.11686,95.578629 51.195885,93.880657 50.242752,92.183338 49.068111,90.690781 47.525937,89.480434 46.34076,88.653667 45.056911,88.014092 43.680932,87.562411 42.01097,86.885263 40.318899,86.189078 38.525082,85.929577 35.993244,85.507953 33.489706,84.830411 30.911043,84.782556 27.06592,84.715034 23.22123,84.574218 19.385753,84.285454 15.934237,84.000037 12.50836,83.433731 9.0448028,83.333041 c 0,0 9.0595742,-6.582164 9.0595742,-6.582164 z"
       id="path3803"
       style="fill:#ff0000;stroke-width:0.26458332" />
    <path
       d="m 20.924953,75.034528 c 0.169178,2.50794 0.650944,4.975646 0.983319,7.463287 0.289238,1.929937 0.252248,3.8886 0.626474,5.804342 0.374201,1.641986 0.46002,3.326598 0.525951,5.003281 0.01039,1.589384 0.298539,3.174169 0.82318,4.671822 0.677531,1.583928 1.047633,3.26595 1.517137,4.91648 0.37913,1.5527 0.629911,3.12366 1.061663,4.66468 0.592117,1.88492 0.786945,3.85067 1.130676,5.78528 0.373692,1.58617 0.607708,3.19392 0.734772,4.81699 0.100298,1.42181 0.0092,2.84282 0.273796,4.24737 0.286483,1.25825 0.357616,2.54299 0.685985,3.79091 0.388374,1.33474 0.512665,2.71816 0.591161,4.09949 0.04645,1.71115 0.04965,3.42311 0.05369,5.13477 0.0021,1.55952 0.0011,3.11905 5.29e-4,4.67857 -5.29e-4,1.5118 -7.94e-4,3.0236 -7.94e-4,4.53541 -0.01561,1.56148 0.05202,3.12381 -0.07204,4.68123 -0.145351,1.85263 -0.523967,3.59707 -1.276104,5.29458 -0.71189,1.58749 -1.614037,3.06609 -2.533623,4.53705 -0.753751,1.25876 -1.626954,2.43799 -2.545817,3.57957 -1.050251,1.04748 -2.314732,1.85239 -3.531746,2.69143 -1.279574,0.83023 -2.374373,1.8994 -3.634919,2.75094 -3.403937,1.96925 -6.8399997,3.88399 -10.211811,5.90775 -2.9019518,1.74176 5.858573,-3.39092 8.802021,-5.06159 0.580614,-0.32955 -1.098204,0.76187 -1.674763,1.09846 -10.277798,6.0002 -6.6844045,4.54514 -11.2407848,6.32678 0,0 8.7460688,-6.93429 8.7460688,-6.93429 v 0 c 3.740658,-1.89981 1.581667,-0.82243 -7.8901155,4.65076 -0.5733631,0.33131 1.0786917,-0.77125 1.6485076,-1.10863 3.4250164,-2.02788 6.8775589,-4.00893 10.3225349,-6.00272 2.981253,-1.72541 -5.9542411,3.46506 -8.9313616,5.19758 0.3986583,-0.25582 0.8232854,-0.47082 1.2139885,-0.73864 0.8659532,-0.59358 1.4911168,-1.49779 2.4664524,-1.95408 1.1252267,-0.92253 2.3839257,-1.68164 3.5732447,-2.50872 1.080325,-0.95284 1.800467,-2.23536 2.681418,-3.36198 0.837421,-1.50164 1.896003,-2.86635 2.572841,-4.46039 0.941831,-1.73087 1.262873,-2.97009 1.435003,-4.93751 0.208619,-1.5119 0.07054,-3.04337 0.108785,-4.56654 3.9e-5,-1.51222 2.2e-5,-3.02443 0.0015,-4.53665 0.0019,-1.56131 0.0053,-3.12261 0.01123,-4.68391 0.0048,-1.69154 0.01799,-3.38398 -0.04629,-5.07465 -0.05764,-1.30445 -0.139119,-2.61638 -0.497701,-3.87946 -0.350297,-1.27309 -0.463301,-2.56437 -0.716753,-3.85871 -0.304495,-1.45327 -0.287561,-2.90394 -0.319438,-4.38518 -0.09465,-1.58688 -0.280755,-3.16425 -0.65158,-4.71318 -0.373297,-1.8893 -0.439585,-3.84202 -1.075798,-5.67974 -0.492169,-1.53435 -0.757933,-3.10131 -1.083022,-4.6751 -0.455052,-1.62565 -0.801117,-3.28518 -1.461976,-4.84545 -0.616517,-1.58941 -0.98212,-3.27741 -0.981775,-4.988861 -0.05619,-1.617686 -0.131067,-3.244106 -0.479093,-4.83045 -0.384354,-1.95643 -0.335413,-3.940561 -0.5653,-5.918909 -0.307491,-2.472344 -0.753933,-4.922891 -1.088346,-7.390868 0,0 9.919057,-5.232604 9.919057,-5.232604 z"
       id="path3805"
       style="fill:#ff0000;stroke-width:0.26458332" />
    <path
       d="m 84.356002,77.56159 c 0.258019,2.967312 0.726406,5.938628 1.554906,8.802621 0.690372,1.909114 1.022139,3.913357 1.512253,5.876359 0.437533,1.894057 0.673486,3.829963 0.955929,5.752552 0.393179,2.013478 0.688541,4.046768 1.258747,6.019278 0.386197,1.80622 0.976662,3.53955 1.615848,5.26934 0.888402,1.85591 1.439603,3.82987 2.08911,5.77342 0.39475,1.6989 0.968393,3.33415 1.518126,4.98669 0.462317,1.93144 0.888611,3.87413 1.210686,5.83485 0.266919,1.69936 0.340079,3.41877 0.378063,5.13577 0.0042,1.73049 0.0052,3.46099 0.0061,5.19148 -0.01789,1.76244 -0.0096,3.52501 -0.0056,5.2875 0.191162,1.94739 -0.286684,3.70476 -0.946883,5.51059 -0.90021,2.07676 -2.098413,3.98207 -3.442758,5.79442 -1.393719,1.86469 -3.013557,3.53692 -4.680635,5.15499 -3.938471,3.71912 -9.546016,6.18894 -13.978618,8.72442 2.993393,-1.7163 5.982621,-3.43989 8.980178,-5.1489 0.203764,-0.11617 -0.402352,0.24145 -0.598432,0.37017 -0.611378,0.40135 -1.194781,0.86586 -1.830165,1.22971 -3.414696,1.95537 -6.845138,3.88311 -10.267706,5.82466 -1.63153,0.79546 -3.271645,1.4577 -5.05659,1.81389 -1.302165,0.60314 -2.695083,0.82734 -4.110969,0.94429 0,0 8.986118,-6.69132 8.986118,-6.69132 v 0 c 1.374473,-0.21284 2.675924,-0.6459 4.008218,-1.03183 1.717667,-0.48454 3.320854,-1.24163 4.926422,-2.01351 -2.976342,1.72742 -5.956723,3.44789 -8.929026,5.18225 -0.213637,0.12466 0.442484,-0.22265 0.652717,-0.35297 0.605377,-0.37526 1.159327,-0.89086 1.767454,-1.2482 3.382703,-1.98775 6.800114,-3.91584 10.200171,-5.87375 -17.07166,9.9271 -8.480242,5.33217 -5.04699,2.54375 1.594654,-1.68274 3.41763,-3.15403 4.792038,-5.04503 1.345258,-1.73137 2.511644,-3.53668 3.536513,-5.47567 0.629563,-1.69719 1.312984,-3.27941 1.079749,-5.13795 0.0052,-1.76282 0.01566,-3.52568 0.0039,-5.28849 0.0072,-1.72313 0.02233,-3.44647 -0.004,-5.16949 -0.01812,-1.67516 -0.05273,-3.35392 -0.273462,-5.0171 -0.278842,-1.91042 -0.726292,-3.7856 -1.138759,-5.66939 -0.52923,-1.65818 -1.193691,-3.26835 -1.523196,-4.98505 -0.613539,-1.94213 -1.132535,-3.91503 -2.017664,-5.75992 -0.653789,-1.74846 -1.393691,-3.46551 -1.719924,-5.31502 -0.559848,-2.03233 -0.818055,-4.11948 -1.271366,-6.17784 -0.270944,-1.8855 -0.597998,-3.763323 -0.948981,-5.634242 -0.474657,-1.963769 -0.784651,-3.963482 -1.417074,-5.887825 -0.802367,-2.965702 -1.201909,-6.011138 -1.786413,-9.023607 0,0 9.962007,-5.075896 9.962007,-5.075896 z"
       id="path3807"
       style="fill:#ff0000;stroke-width:0.26458332" />
    <path
       d="m 87.048511,76.281438 c 2.64718,0.662643 5.364583,0.942337 8.080631,1.124857 2.394869,0.02421 4.688936,0.781722 7.025578,1.223063 2.16112,0.404209 4.16698,1.248355 6.18527,2.086684 2.40388,0.944753 4.56295,2.35879 6.76907,3.673975 1.42947,0.921446 3.20626,1.402218 4.35097,2.682476 0.95007,1.537922 2.14885,2.836042 3.43162,4.096747 1.52442,1.40552 2.54276,3.14375 3.47669,4.966486 0.86325,1.426877 1.36433,2.979825 1.64261,4.612784 0.22264,1.67166 0.19478,3.36366 0.20201,5.04653 0.0852,1.70534 -0.20522,3.30514 -1.05857,4.78143 -3.36187,4.34142 -9.0993,6.99742 -13.99232,8.86817 -2.05236,0.63798 -4.13497,1.13935 -6.26995,1.39274 -2.11242,0.16111 -4.21013,0.27641 -6.31002,0.54921 -1.951618,0.11627 -3.841719,0.51334 -5.754932,0.8756 -1.560208,0.28175 -3.146091,0.33951 -4.72726,0.37313 -0.640625,0.10884 -1.466834,-0.21593 -2.051431,0.18522 -0.0894,0.0614 -0.233815,0.35064 -0.142277,0.29252 9.753521,-6.19258 5.677601,-6.61394 9.66692,-6.14711 1.90119,0.81317 3.9114,1.36536 5.94356,1.73881 2.05444,0.42851 4.06526,1.02687 6.11756,1.45858 2.05477,0.42728 3.98102,1.19496 5.84188,2.15036 1.79537,0.99563 3.33398,2.30423 4.80002,3.72559 1.58388,1.35676 3.02872,2.88806 4.37478,4.47977 1.13023,1.37871 2.37854,2.66685 3.68235,3.88294 1.04975,1.11334 1.94856,2.35505 2.8385,3.59703 0.92008,1.31445 1.57215,2.72838 1.96844,4.27842 0.45988,1.26507 0.75635,2.57616 1.13512,3.86565 0.45109,1.50085 0.6056,3.05888 0.67516,4.61721 0.0573,1.71244 0.06,3.42608 0.0628,5.13929 8e-4,1.5419 -0.001,3.08379 -0.002,4.62569 0.0829,1.60657 -0.0847,3.16484 -0.64971,4.67223 0,0 -10.19712,4.6196 -10.19712,4.6196 v 0 c 0.82123,-1.26475 0.93346,-2.73192 0.87468,-4.21183 0.002,-1.54343 0.005,-3.08686 0.0111,-4.63027 0.006,-1.6987 0.0193,-3.39798 -0.0331,-5.09613 -0.0683,-1.46838 -0.15574,-2.94605 -0.56997,-4.3659 -0.39087,-1.30784 -0.70375,-2.63262 -1.15731,-3.92185 -0.31456,-1.42937 -0.90298,-2.70188 -1.75902,-3.89463 -0.85627,-1.17892 -1.68855,-2.38406 -2.71537,-3.4239 -1.31665,-1.2569 -2.55464,-2.60574 -3.7044,-4.01594 -1.32425,-1.56442 -2.78893,-3.01191 -4.31535,-4.37876 -1.40571,-1.32686 -2.90744,-2.53788 -4.63315,-3.43153 -1.82102,-0.86943 -3.69501,-1.56258 -5.68731,-1.93217 -2.02563,-0.48153 -4.03486,-1.0308 -6.073022,-1.46067 -2.133621,-0.4681 -4.272333,-1.05603 -6.262989,-1.96407 -3.490619,-2.76671 -0.935051,-0.4486 8.55953,-7.0551 0.116758,-0.0812 2.182424,0.12622 2.434884,-0.006 1.545137,-0.0653 3.089157,-0.18548 4.606317,-0.50221 1.90849,-0.36816 3.83031,-0.582 5.76192,-0.79372 2.0908,-0.25973 4.19895,-0.26165 6.28673,-0.55531 2.07776,-0.35405 4.14368,-0.85591 6.10755,-1.63037 4.04329,-1.89747 0.63851,-0.33459 -7.64041,4.56193 -0.26026,0.15393 0.55637,-0.24301 0.81177,-0.40489 0.0473,-0.03 1.23583,-0.99017 1.29309,-1.045 0.19555,-0.18726 0.36077,-0.40384 0.54115,-0.60576 0.99465,-1.24151 1.46583,-2.56553 1.35961,-4.18554 0.003,-1.62915 0.0144,-3.26281 -0.14385,-4.8861 -0.20845,-1.53461 -0.6382,-2.98532 -1.45527,-4.31759 -0.84833,-1.732108 -1.80373,-3.354726 -3.24979,-4.668676 -1.30357,-1.259943 -2.50881,-2.571993 -3.51896,-4.084029 -1.16922,-1.076462 -2.83525,-1.55209 -4.11293,-2.494285 -2.13984,-1.332648 -4.30477,-2.636364 -6.680299,-3.515852 -1.9851,-0.782222 -3.963157,-1.557295 -6.081765,-1.908654 -2.283016,-0.494056 -4.550466,-1.109699 -6.903898,-1.143563 -2.770886,-0.248555 -5.524907,-0.625737 -8.249433,-1.197055 0,0 9.183661,-6.370251 9.183661,-6.370251 z"
       id="path3809"
       style="fill:#ff0000;stroke-width:0.26458332" />
    <path
       d="m 176.17538,78.797035 c -3.06465,-0.06895 -6.13096,-0.05596 -9.19632,-0.05301 -2.39147,0.0091 -4.78286,0.03039 -7.17431,0.0425 -1.60237,0.0056 -3.20476,0.01315 -4.80713,0.0037 -1.69662,-0.0045 -3.39326,-9.2e-5 -5.08989,0.0021 -1.61556,-0.165042 -3.15766,0.298013 -4.73905,0.530495 -3.94936,1.486016 -11.45936,6.234125 5.07787,-3.260932 -1.52288,1.0756 -3.08916,2.093098 -4.53792,3.269266 -1.11616,0.828794 -1.88696,1.993739 -2.77153,3.042933 -0.90782,1.098196 -1.59477,2.347974 -2.27095,3.595309 -0.78579,1.235972 -1.39038,2.468801 -1.66428,3.911047 -0.22025,1.630175 -0.17117,3.271698 -0.40751,4.89983 -0.30646,1.70239 -0.43454,3.427677 -0.51152,5.15335 -0.0747,1.991707 -0.0779,3.984867 -0.0914,5.977637 -7.9e-4,2.02979 0.0198,4.05951 0.0314,6.08925 0.0425,1.54365 -0.0619,3.09336 0.0702,4.63286 0.26503,2.3029 0.95258,4.52239 1.58601,6.74277 0.5192,2.19032 1.14208,4.34589 1.87567,6.47345 0.70999,1.9075 1.53976,3.77165 2.42275,5.60554 0.96998,1.95119 1.75197,3.96743 2.50288,6.00952 0.55374,1.90704 1.33326,3.72543 1.99483,5.59369 0.70895,1.84937 1.48361,3.67426 2.34047,5.45997 0.86931,1.80536 2.2698,3.20541 3.64334,4.62183 1.3284,1.2288 2.80594,2.29832 4.34102,3.25397 1.45434,1.13282 3.077,1.89309 4.78875,2.54632 1.52937,0.78911 3.16678,1.20644 4.86456,1.40536 1.53885,0.0154 3.00942,0.45184 4.53192,0.635 1.92392,0.1845 3.85794,0.21092 5.78915,0.22594 1.62296,0.008 3.24591,-0.006 4.86886,0.001 1.70515,0.002 3.4103,-0.003 5.11545,-0.006 1.54186,-0.002 3.08373,-0.003 4.6256,-0.003 1.50842,0.27047 2.61583,-0.48718 3.96178,-0.9618 0.21278,-0.10693 0.42557,-0.21385 0.63836,-0.32077 0,0 -8.77495,6.95627 -8.77495,6.95627 v 0 c -0.22918,0.0903 -0.45837,0.18069 -0.68755,0.27104 -1.37513,0.54396 -2.70246,0.76911 -4.19182,0.63351 -1.53923,-2.7e-4 -3.07847,-7.9e-4 -4.61771,-0.002 -1.70251,-0.002 -3.40503,-0.005 -5.10754,0.001 -1.62463,0.0107 -3.24944,0.007 -4.87392,-0.0197 -1.95908,-0.0432 -3.92063,-0.10787 -5.86894,-0.33076 -1.51855,-0.22207 -3.02095,-0.53249 -4.5549,-0.64091 -1.73721,-0.31555 -3.38922,-0.87846 -4.98545,-1.63715 -1.7443,-0.73215 -3.39825,-1.57967 -4.91763,-2.71906 -1.56631,-1.04957 -3.12121,-2.13498 -4.44586,-3.4873 -1.4556,-1.50471 -2.91597,-3.01156 -3.84151,-4.92209 -0.87306,-1.82378 -1.64818,-3.6944 -2.40399,-5.56902 -0.63459,-1.87176 -1.46142,-3.6705 -1.96053,-5.58992 -0.73638,-2.0113 -1.51059,-3.98631 -2.45608,-5.91155 -0.90409,-1.8749 -1.75907,-3.77058 -2.50706,-5.71441 -0.7191,-2.15865 -1.34968,-4.33359 -1.82009,-6.56196 -0.6604,-2.26162 -1.42255,-4.50511 -1.78575,-6.84025 -0.23379,-1.57412 -0.0754,-3.17222 -0.11279,-4.75989 0.009,-2.03926 0.0251,-4.0785 0.0228,-6.1178 -0.0129,-1.9957 -0.0357,-3.99235 0.009,-5.98767 0.0677,-1.76239 0.18502,-3.52359 0.44733,-5.269235 0.28933,-1.625331 0.30744,-3.247348 0.4152,-4.893726 0.18423,-1.542608 0.48764,-2.995604 1.50809,-4.228565 0.61644,-1.305947 1.31456,-2.593308 2.15223,-3.768484 0.81374,-1.170766 1.78226,-2.255941 2.72544,-3.323101 0.98999,-0.769591 0.50167,-0.361214 1.46209,-1.228534 0.9744,-0.781106 2.1659,-1.263116 3.03844,-2.183818 2.61984,-1.515057 9.54379,-6.493687 14.27253,-7.47163 1.60293,-0.270833 3.19765,-0.480343 4.83052,-0.380211 1.6947,0.0021 3.3894,0.0066 5.08411,0.0021 1.59895,-0.0093 3.19793,-0.0021 4.79689,0.0037 2.35246,0.01209 4.70485,0.03351 7.05732,0.0425 3.11402,0.003 6.22889,0.01471 9.34224,-0.05301 0,0 -9.05957,6.582167 -9.05957,6.582167 z"
       id="path3811"
       style="fill:#ff0000;stroke-width:0.26458332" />
    <path
       d="m 151.70471,156.67738 c 0.33849,2.49564 0.48676,4.95063 -0.0223,7.42542 -0.53572,2.12318 -1.84834,3.75455 -3.47016,5.1562 -4.86683,3.45853 -10.20508,6.68939 -15.95272,8.51479 -1.90982,0.55504 -3.7867,1.14537 -5.76323,1.41267 -2.07616,0.11048 -4.16649,0.29251 -6.19151,0.78097 -1.70697,0.47308 -3.45592,0.71124 -5.21916,0.82618 -1.03658,0.0429 -0.51998,0.0259 -1.54979,0.051 0,0 9.02969,-6.61015 9.02969,-6.61015 v 0 c 1.00849,-0.0482 0.5035,-0.018 1.51496,-0.0907 1.72198,-0.17533 3.41427,-0.50789 5.0998,-0.89943 2.0747,-0.34234 4.16569,-0.52998 6.25255,-0.77204 1.89939,-0.35983 3.7376,-0.95155 5.5859,-1.5108 1.21196,-0.43825 2.38411,-0.91251 3.54047,-1.48446 0.33847,-0.1674 1.33085,-0.71324 1.00644,-0.51998 -10.31935,6.14758 -11.16431,6.71656 -7.70452,4.46351 1.60825,-1.21926 3.12447,-2.54787 3.81182,-4.51678 0.66914,-2.32112 0.60196,-4.6307 0.11273,-6.99371 0,0 9.91905,-5.23261 9.91905,-5.23261 z"
       id="path3813"
       style="fill:#ff0000;stroke-width:0.26458332" />
  </g>
</svg>
